<svg version="1.0" xmlns="http://www.w3.org/2000/svg" width="346.667" height="346.667" viewBox="0 0 260 260"><path d="M2.3 77.8C.7 78 0 78.8 0 80.4c0 2 .4 2.2 5.8 2.1 3.1 0 6.2.1 6.7.2.9.3 1.3 14.7.6 19.6 0 .5-3 .7-6.6.5-6.2-.3-6.5-.2-6.5 1.9 0 2.2.4 2.3 8.4 2.3 4.7 0 8.8-.5 9.1-1 .7-1.2 1-26.9.3-27.6-.6-.6-12.5-1-15.5-.6zm62.9.4l-2.7.7.1 12.3c.1 6.8.2 13.1.3 14.1.1 1.6 1.3 1.7 14.4 1.5l14.2-.3.2-13.8c.1-10.2-.2-14-1.1-14.3-2.1-.8-22.4-.9-25.4-.2zm22.3 14.3v10l-9.7.2c-5.9.1-10-.3-10.4-.9-1-1.5-.4-18.2.6-18.8.5-.3 5-.5 10.2-.5h9.3v10z"/><path d="M72.2 86.5c-1.3.7-1.7 2.2-1.6 5.8.1 2.7.4 5.1.7 5.3 1.2 1.2 10.9.9 11.4-.2.4-1.2.7-6.1.4-9.5-.1-2-8.2-3-10.9-1.4zm-41.3-8.3c-.9 1.7-.2 6.8.9 7.3 1.9.7 2 .6 2.6-3 .3-1.7.1-3.2-.7-3.7-1.2-.8-2.6-1-2.8-.6zm7.6.8c-.8 1.3.3 3 2 3 1.9 0 2.6-2.7.9-3.4-2.1-.8-2.2-.8-2.9.4zm16.2.9c-.3 1.1.1 2.2.8 2.5 1.7.6 3.9-1.9 3-3.4-1-1.7-3.2-1.1-3.8.9zm-31.3 2.2c-2 3.2-1.2 5.1 1.8 4 1.4-.5 1.5-.9.4-3-1-1.9-1.5-2.1-2.2-1zm23.9.5c-.7.7-1.3 2.7-1.3 4.3 0 1.6-.4 3.2-.8 3.5-1.2.7-2.7-.7-2.7-2.4 0-.8-.9-1.6-2-1.8-1.8-.2-2.1.2-2 3.2 0 1.9.4 3.8.8 4.3.5.4 3.6.9 7 .9 8.5.2 8.7.2 8.7 1.9 0 1.3-3.8 2.2-7.2 1.6-.9-.1-1.9 3.7-1.6 6.5.1 1.2.7 2.1 1.3 2 1.9-.3 3.5-1.7 3-2.7-.4-.5.4-.9 1.5-.9 1.3 0 2.4.8 2.7 1.9.3 1.1 1.3 1.9 2.2 1.8 1.4-.1 1.7-1.3 1.6-8.1 0-7.4-.2-8.1-2-8.1-1.6 0-2-.7-2-4 0-3.6-.3-4-2.5-4-1.4 0-2.7-.3-3-.6-.3-.4-1.1-.1-1.7.7zM1.2 85.8C.4 86 0 88.4 0 92.1c0 4.9.3 5.9 1.8 6 .9.1 2.4.2 3.2.3 3.6.4 4.7-1.2 4.6-6.6-.1-5.2-.1-5.3-3.7-5.8-1.9-.4-4.1-.4-4.7-.2zm21.3 5.9c-.7 2 .4 3.6 2.1 2.9.9-.3 1.4.2 1.4 1.4s-.7 2-1.8 2c-1.4 0-1.8.9-1.9 4.5-.2 3.5.1 4.5 1.3 4.5.9 0 1.8-.9 2.1-2 .3-1.1 1.4-2 2.4-2 1.2 0 1.9-.8 2-2 .1-1.1.3-2.5.4-3 .1-.6.3-1.7.4-2.6 0-.8.5-1.3 1-.9.6.3 1.5-.4 2.1-1.5.9-1.7.8-2-.7-2.1-1-.1-3.7-.2-6-.4-2.9-.1-4.4.2-4.8 1.2z"/><path d="M34.6 100.3c-.3 1.3.1 2.1 1.5 2.4 2.4.7 2.1 3.6-.4 4.1-1 .2-1.7 0-1.6-.5.4-2.2-.3-3.3-2.1-3.3-1.1 0-2 .5-2 1.1 0 .6-1.3 2.3-2.9 3.8-2.3 2.1-4.1 2.8-7.7 3-4.8.1-7 1.6-5.4 3.6.4.5 4.1 1 8 .9 5.7 0 7.4-.4 8.2-1.7.5-.9.5-1.7.1-1.7s-.1-.4.7-1c1.9-1.1 4.1.6 3.3 2.7-.4 1.1 0 1.4 1.8 1.1 2.1-.3 2.4-.8 2.2-4-.1-3.1.2-3.7 2-4 1.8-.2 2.2-1 2.4-4 .2-3.2-.1-3.9-2-4.2-3.8-.8-5.5-.3-6.1 1.7zm16.8 6.4c-1.3.4-.7 4.3.6 4.3.4 0 1.3-.6 1.9-1.4 1.3-1.5-.5-3.6-2.5-2.9zM.2 112.9c.3 2 .9 2.4 4.6 2.5 2.3.1 4.2-.1 4.2-.5s.3-1.4.6-2.2c.4-1.2-.6-1.6-4.6-1.8-4.8-.4-5.1-.3-4.8 2zm151.7 1.4c0 .1-.2 1-.4 2-.2 1.3.1 1.7 1.2 1.3.8-.3 2.2-.6 3.1-.6 1.2 0 1.3-.3.4-1.2-1-1-4-2-4.3-1.5zm67.6.5c-1 1-.5 2 1.3 2.4 1 .3 2.3-.1 3-.9.7-.7 1.1-1.3 1-1.4-1.5-.4-4.9-.5-5.3-.1zm-189.7 3.6c-.4 3.2.6 4.8 3 5.3.7.2 1.2-.3 1.3-1 0-.6.2-2.2.5-3.4.4-2.1-.8-3.5-3.3-3.9-.6-.1-1.3 1.3-1.5 3zm31.7-.2c-.6 1.8-.8 3.8-.6 7.1.1 2.2.7 2.9 3.1 3.3 2.3.5 3 1.2 3 3 0 1.7-.6 2.4-2 2.4-1.2 0-2-.7-2-1.7 0-1.2-.3-1.4-1.1-.6-.6.6-.8 2-.4 3.2.7 2.4 5.8 3 7.2.8 1-1.6 1.2-16.6.2-17.2-1.1-.7-1.8.7-2.1 4.4-.3 4.4-3.3 3.8-3.2-.7 0-1.7-.3-3.2-.8-3.2s-.6-.5-.3-1c.3-.6.4-1 0-1-.3 0-.8.6-1 1.2zm13.7-.4c-1.2.2-2 .8-1.7 1.3.4.5.1.9-.5.9s-.9.4-.5.9c.3.5.1 1.2-.5 1.6-.6.4-.8 1.1-.5 1.6 1.2 1.8 1.4 4.9.4 5.5-.6.4-.6 1 .1 1.9.8.9.6 1.7-.5 2.9-1.5 1.5-1.5 1.7 0 2.2 2.7 1.1 3.6-1 3.6-8.5 0-5.5.3-7.1 1.4-7.1 1.2 0 1.5 1.6 1.6 7.2.1 4 .1 7.7 0 8.1-.1.5.4.7 1.1.5.7-.3 1.3-2 1.3-3.9s.5-3.7 1-4.1c.7-.5.6-.8 0-.8-.7 0-1-2.1-.9-5.1.2-2.8 0-4.8-.3-4.5-.4.3-1.1.2-1.7-.2-.6-.4-2.1-.6-3.4-.4zm33.7.8c-.1 1-.2 3-.3 4.4-.1 1.5-.7 2.5-1.6 2.5-1.5 0-1.6-.4-1.9-5.1-.2-4-2.6-2.3-2.7 2-.1 4 1.7 6.6 4.5 6.6 1 0 1.7.8 1.8 2 .1 1.1-.3 2-.8 2-.6 0-.7.4-.4 1 .3.6-.1.7-.9.4-.9-.3-1.6-1-1.6-1.5s-.7-.9-1.5-.9c-1.8 0-1.8.5-.5 3.1 1.1 2 4.5 2.5 6.8 1 1.9-1.2 2.3-15.3.5-17.7-1.2-1.7-1.3-1.7-1.4.2zm7.1-.6c-2.4.6-2.5.9-2.5 8 0 4.1.1 8.5.3 9.7.6 3.4 2.9.6 2.7-3.4-.2-2.9.5-3.9 1.9-3.1.2.2 1.2-.5 2.3-1.4 2.2-2 2-8.8-.2-8.8-.7 0-1.5-.4-1.7-.8-.1-.5-1.4-.6-2.8-.2zm3.1 3.7c0 .5.2 1.6.4 2.6.2 1.3-.2 1.7-1.3 1.5-2.2-.4-2.9-4.8-.8-4.8.9 0 1.6.3 1.7.7zm122.9-3.4c-2.3 1.2-2.5 1.8-2.5 8.5 0 4.8-.4 7.3-1.2 7.7-1.1.4-1.8-1.4-1.4-3.8 0-.4-.3-.7-.8-.7-1.8 0-1.7-3.5.1-7.2 2.2-4.5 2.2-4.5.4-4.5-.8 0-2 1.3-2.7 2.9-1.2 3-3 2.9-2.4-.2.4-2.3-1-3.6-2.1-1.9-.6 1-.8 9.9-.5 16.7.2 2.4 2.6.6 2.6-1.8 0-2.6 2.4-4.1 2.6-1.6.3 2.9.4 3.4 1.1 4.2.4.4 1.5.1 2.3-.6 1.2-1 1.9-1 2.7-.2 1.8 1.8 5.3 1.4 6.9-.6 2.2-2.6 1.7-13.8-.7-16.3-1.6-1.6-2.3-1.7-4.4-.6zm3.2 8.7c.1 4.2-.4 6.5-1.3 7-.7.5-1.4.8-1.6.7-.1-.1-.3-3.1-.4-6.6-.2-4.5.2-6.5 1.2-7.1 1.9-1.3 2.1-.9 2.1 6zm6.6-8.6c-2 1-2.6 3.3-1.8 6.3.1.5.2 3.4.1 6.6 0 4.2.3 5.7 1.2 5.4.8-.2 1.2-2.9 1.2-8.1 0-7.1.2-7.7 2-7.4 1.9.3 2.1 1.4 1.5 10.3-.2 2.3.7 4.9 1.8 5.3.7.2 1.2-.6 1.2-2 0-2.8-.2-13.8-.3-15.5-.1-1.6-4.3-2.2-6.9-.9zM49.5 127c.2 8.4.7 11.1 2 9.8.3-.3.8-1.8 1.1-3.4.7-4 1-4 2.4 0 .6 2 1.5 3.6 2 3.6 1.4 0 2.2-1.9 1.3-3.3-2.4-3.7-3-7.6-1.6-10.7 1.6-3.9 1.6-5 .3-5-.6 0-1.7 1.5-2.5 3.2-1.2 2.9-2.1 3.1-1.6.4.2-1-1.9-3.6-2.8-3.6-.4 0-.7 4.1-.6 9zm34.2-8.3c-.5.8-1 7.1-.7 8.8.1.5.1 2.9 0 5.2l-.1 4.2 3.6-.1c3.8-.1 4.8-1 5.3-4.6.4-3.1-1.4-6-4-6.4-1.7-.2-2.2-1-2.2-3.5-.1-3.2-1-5-1.9-3.6zm5.2 11.7c.9 1 .8 1.6-.3 2.6-2 1.6-3.5.5-2.9-2 .6-2.3 1.6-2.5 3.2-.6zm3.1-10.9c0 .8.7 1.5 1.5 1.5 1.2 0 1.5 1.6 1.5 8.1 0 6 .3 8 1.3 7.7.8-.3 1.3-3 1.4-7.9.1-5.3.6-7.7 1.7-8.5 2.2-1.5.9-2.4-3.6-2.4-2.7 0-3.8.4-3.8 1.5zm32.1.4c-.1.9-.1 2.7 0 4.1 0 1.4.1 3.8 0 5.5-.1 4.4.8 7.5 2 7.5.6 0 .9-.9.6-2-.3-1.1-.1-2.2.4-2.5.4-.3.6-1.2.3-1.9-.7-1.8 1.2-3 2.2-1.5.4.7.8 2.6.8 4.2.2 4.2 2.4 4.6 2.8.5.6-6.5-.3-15.9-1.5-15.5-.7.2-1.3 1.5-1.4 2.8 0 1.3-.1 3-.2 3.6-.1.7-.8 1.3-1.7 1.3-.9 0-1.4-.8-1.3-1.8.3-3.8-.2-5.9-1.5-5.9-.8 0-1.5.7-1.5 1.6zm12.2-1.1c-1.1.7-1.6 12.9-.6 16.4.5 2 5.2 2.5 7 .7.8-.8 1.3-.8 1.7 0 1.7 2.8 2.4.4 2.3-8.1-.1-5.7-.6-9.3-1.3-9.5-.7-.2-1.2.9-1.2 2.9 0 7.8-.2 8.4-1.3 6.5-.5-.9-1.8-1.7-2.8-1.7-1.5 0-1.9-.8-1.9-3.6 0-4-.3-4.6-1.9-3.6zm5 12.2c.6 2.2-.7 3.5-2.3 2.5-1.5-.9-1.2-4.5.4-4.5.7 0 1.6.9 1.9 2zm7.9-3.6c-.2 7.5.1 9.3 1.3 9.3 1.5 0 2.5-1.7 3.2-5.2.2-1.1.8-2.4 1.4-3 .7-.6 1-.6.9 0-.7 3.4.1 8.6 1.2 8.3 1.2-.4 2.2-14.6 1.3-17.5-.8-2.4-3.2-.2-4.4 3.8-1.4 4.7-2.5 4.5-2.3-.5.1-2-.4-3.6-1.2-3.9-1-.4-1.3 1.5-1.4 8.7zM167 119c-1 .6-1.5 2.9-1.5 8.2-.1 6.6.1 7.5 2.4 9.5 2.6 2.3 2.6 2.3 4.6.3 1.5-1.6 2-3.5 2.1-9.3.1-3.9-.3-7.8-.9-8.5-1.1-1.4-4.6-1.6-6.7-.2zm4.6 8c.2 5-.1 6-1.5 6-1.3 0-1.7-1.1-1.7-5.8-.1-5 1.1-8.1 2.5-6.6.3.3.6 3.2.7 6.4zm5.3-7.3c-.3 6.7-.1 16.4.5 17 1.1 1.1 1.8-.5 1.9-4.1.1-2 .3-3.6.4-3.6.2 0 1 1.7 1.8 3.8 1.9 4.7 4.7 5.4 3.4.9-.5-1.6-1.1-3.2-1.4-3.5-.2-.3 0-1.1.6-1.8 1.5-1.9 1.4-8.5-.2-9.5-2.5-1.6-6.9-1-7 .8zm5.7 3.5c-.1 1.3-.9 2.3-1.7 2.3-.8 0-1.5-1-1.5-2.3-.1-1.5.4-2.2 1.7-2.2 1.4 0 1.8.6 1.5 2.2zm9.9 3.5c.2 4.8.3 9.1.4 9.5.2 1.5 2.1.8 2.1-.7 0-.8.5-1.5 1-1.5.6 0 1 .7 1 1.5s.4 1.5 1 1.5c1.3 0 2.8-3.2 2.3-5-.3-1 0-.9.7.3.6.9.9 2.1.5 2.6-.6 1 1.3 2.6 2.1 1.8 1-1 1.1-5.7.2-6.3-.5-.3-.5-1.1-.1-1.7.7-1 .8-4.6.4-9.5-.2-2.3-3.1-1.2-3.7 1.5-.3 1.6-.9 4.1-1.4 5.8l-.7 3-.7-4c-.9-5-1.9-6.9-3.8-7.3-1.2-.2-1.4 1.3-1.3 8.5zm16.6-7c-.5 1-.9 2.1-1 2.5-.1.5-.1.9-.2 1-.2.9-.7 4-1.4 8.5-.5 3.8-.4 5.3.5 5.3.7 0 1.4-.9 1.7-2 .3-1.1 1.2-2 2-2s1.7.9 2 2c.5 2 1.5 2.5 2.5 1.5.5-.5-.8-8-2.7-16.3-.6-2.6-2.1-2.9-3.4-.5zm2.9 8.2c0 .6-.4 1.3-1 1.6-.5.3-1-.1-1-.9 0-.9.5-1.6 1-1.6.6 0 1 .4 1 .9zm5.7-9.2c-.3.4-.5 4.7-.5 9.4 0 6.2.4 8.6 1.3 8.6 1.5 0 4.8-6.4 4-7.8-.4-.5-.1-.9.5-.9s1 1.4.8 3.3c-.2 3.5.8 6.1 2.1 5.3.9-.6 1-18.6.2-18.6-1.8.1-4.5 4.3-5.4 8.5-.3 1.1-.6.4-.7-1.8-.1-2-.3-4.1-.4-4.6-.2-1.5-1.3-2.3-1.9-1.4zM6 121.1c0 .9-1 1.9-2.3 2.3-2.5.6-2.5.6-3.2 8.1-.3 2.7-.2 4.3.2 3.5 1.2-3.1 2.5-4.1 3.9-2.9.7.6 1.1 1.6.8 2.3-.4 1 .7 1.2 4 1.1 4.1-.2 4.5-.1 4.2 1.8-.2 1.6-1.1 2.2-3.7 2.4-6.3.6-6 .4-4.6 2.6 1.9 2.9 6.5 2.9 8.4 0 .9-1.3 2.2-2.3 2.9-2.3.8 0 1.4-1 1.4-2.6 0-1.5-.4-2.3-1-1.9-1.5.9-4-1.4-3.3-3.1.3-.7.8-1.2 1.2-1 .3.2 1.4 0 2.5-.3 1.7-.7 1.7-.8.1-2.4-.9-1-2.1-1.5-2.6-1.2-.5.4-.9-.3-.9-1.3 0-3.9 7.9-3.1 8.1.8.1 1.1.2 2.5.3 3.2 0 .7 2.3 1.3 5.3 1.4 4.4.3 5.4 0 6.3-1.6 1-1.8.7-2-2.2-2.1-1.8-.1-3.9-.1-4.5 0-.9.1-1.3-1.3-1.3-4.3v-4.5l-10 .1c-8.7.1-10 .4-10 1.9z"/><path d="M22.4 136.5c-.7 2-.9 19.3-.2 18.9.3-.2.8.1 1 .8.2.6 1 .8 1.6.4.8-.5 1.2-3.6 1.2-8.7 0-7.6.1-7.9 2.4-7.9 1.9 0 2.2-.4 1.9-2.3-.4-1.9-1.1-2.3-4-2.3-1.9 0-3.7.5-3.9 1.1z"/><path d="M34.8 135.7c-.9.3-1.5 1-1.2 1.8.3.7-.4 1.8-1.5 2.5-2.7 1.4-2.7 3.6 0 4.3 1.2.3 1.8 1 1.4 1.6-.6 1-.1 1.3 3.4 1.5 1.8.1 2.7 2.6.9 2.6-.8.1-.7.4.4 1.1 1 .5 2.1.9 2.5.9.5-.1 1 .9 1.3 2.2.5 1.9 1.3 2.3 4.6 2.4 3.3.1 4-.3 4.1-1.9.1-1.1-.6-2.1-1.7-2.4-1-.3-2.1-1.4-2.3-2.5-.5-1.6-1.2-2-3.7-1.6-3.8.6-4.4-.3-4.6-6.5-.2-5.3-1-6.6-3.6-6zm-20.4 8c-1.9.6-.4 4.3 1.7 4.3 1.3 0 1.9-.7 1.9-2.3 0-2.2-1.1-2.8-3.6-2zM0 145.5c0 .8.4 1.5 1 1.5.5 0 .7-.7.4-1.5-.4-.8-.8-1.5-1-1.5-.2 0-.4.7-.4 1.5z"/><path d="M74.8 148.1c-1.5.4-2.9.4-3.2.1-.3-.3-.7 1.6-.7 4.1-.1 2.6-.2 5.3-.3 5.9-.1 1.7-11.5 2-11.7.4-.1-.6-.2-3.1-.3-5.6-.1-4.5-.1-4.5-3.8-4.6-2.8-.1-3.8.3-4.1 1.7-.3 1.1-.1 2 .4 2 .5.1 1.5.2 2.2.3.7 0 1.2 1.5 1.2 3.6 0 2.6-.4 3.5-1.7 3.5-.9 0-2 .3-2.3.7-.4.4-1.3.4-2.1.1-.7-.3-3.1-.6-5.1-.6-3.2-.2-4 .2-4.9 2.3-.9 2.2-1.6 2.5-6.7 2.5-4.7 0-5.7-.3-5.7-1.7 0-2.1-1.2-2.9-2.9-1.9-1.3.8-2.2 16.1-.9 16.1.4 0 .5.8.3 1.8-.3 1.6.4 1.9 5 2.1 4.7.1 5.6-.2 7-2.2 1.1-1.8 2.2-2.3 4.1-1.9 2 .3 2.6 0 3.1-1.7.3-1.4 1.3-2.1 2.9-2.1 3 0 3.3 3 .4 3.7-3.5.9-2 3.8 2 3.8h3.5v-6c0-4.6-.3-6-1.5-6-.8 0-1.6-.8-1.8-1.8-.3-1.4.4-1.7 3.3-1.7 2.8 0 3.7.5 4.4 2.2l.8 2.2 2.5-2.7 2.6-2.7 1.6 2.5c1 1.5 2.2 2.2 3.1 1.9.8-.4 1.3-1 1-1.4-.6-1 2.4-2.2 3.6-1.4.5.3.9 1.2.9 2 0 2.1 2.8 1.7 4-.7 1.8-3.2 4.5-2 4.5 2.1 0 4.3 2.9 5.5 3.9 1.5.5-2.1 1-2.4 2.5-1.5 1.4.7 1.9 1.9 1.7 4.2-.2 3.1-.5 3.3-4.2 3.3-2.3 0-3.9-.5-3.9-1.2 0-2-1.5-2.7-5.1-2.4-2.9.2-3.4-.1-3.4-1.8 0-1.4-.6-2.1-1.9-2.1-1.8 0-2 .7-1.8 5.7l.2 5.8h24l.1-6.5c.2-8.8-.1-9.7-3.4-9.5-3 .2-5.2-1.1-5.2-3 0-.8 1.4-1.1 4-1 3.4.2 4.1-.1 4.6-2.1 1.1-4.2-.2-5.9-4.3-5.9-2.1 0-3.8-.5-3.8-1-.1-2.1-1.8-3.7-3.6-3.2-1 .3-1.9.2-2.1-.2-.2-.4-1.5-.4-3 0zm8.1 8.5c.4-.3.8.1.8.9 0 1.8-2.7 2.9-4 1.6-.7-.7-.5-1.6.4-2.7.8-1 1.5-1.2 1.7-.5.2.6.7.9 1.1.7zm-42.3 8.7c2.4-.9 1.6 3.1-.8 4.2-1.3.6-2.2 1.6-2 2.3.1.7-.7 1.2-1.9 1.2-1.5 0-1.9.5-1.4 1.9.6 2.1-.8 3-4.5 2.5-1.4-.1-2.8-.3-3.2-.3-.5-.1-.8-1.9-.8-4.1 0-3.5.3-4 2.3-4.1 1.2-.1 3.8-.2 5.7-.2 2.3-.1 3.5-.7 3.6-1.7.3-2.9.6-3.5 1-2.3.3.7 1.2.9 2 .6zM0 154.5c0 1.9.5 2.1 5.3 2 8.6-.2 8.3-.6 8.2 10.3l-.1 9.7-6.7.3c-5.8.3-6.7.5-6.7 2.2 0 1.8.7 1.9 8.3 1.8 4.5 0 8.7-.3 9.2-.5 1.1-.4 1.2-26 .1-27.1-.4-.3-4.5-.7-9.2-.7-7.9-.1-8.4 0-8.4 2z"/><path d="M63.2 154.7c.4 2.4 3.8 2.6 3.8.2 0-1.3-.7-1.9-2.1-1.9-1.4 0-1.9.5-1.7 1.7zM34 157c-.8 1.4-.8 2 0 2 .6 0 .9.4.6.9-.4.5.1.8 1 .7 2.7-.4 3.5-3 1.4-4.4-1.6-1-2.1-.9-3 .8zm-8 .2c0 1.7 1.2 3.2 2.8 3.5.7.2 1.2-.7 1.2-2.2 0-1.8-.5-2.5-2-2.5-1.1 0-2 .6-2 1.2zm-24.9 2.6c-.7.2-1.1 2.9-1.1 6.8v6.4l4.7-.2 4.7-.3.2-5.2c0-2.8-.2-5.7-.6-6.3-.7-1.2-5.7-1.9-7.9-1.2zm54.2 14.4c-1.4 1.6-1.4 1.8.1 2.4.9.3 2.5.4 3.6.1 1.1-.3 2 0 2 .6 0 .7.5.4 1.1-.6.6-1 .9-2.3.7-2.9-.6-1.8-5.7-1.5-7.5.4z"/></svg>