<svg width="438" height="34" fill="none" xmlns="http://www.w3.org/2000/svg"><g clip-path="url(#clip0_125_364)" fill="#3F3F3F"><path d="M1 14.6h2.241v4.8H1v-4.8zm25.212 0h2.24v4.8h-2.24v-4.8zm-19.05-1.8h2.242V21H7.163v-8.2zm12.887.2h2.24v8h-2.24v-8zm12.325 0h2.241v8h-2.24v-8zm-19.048-2h2.24v12h-2.24V11zm24.441 2.4h2.24v7.2h-2.24v-7.2zm25.211 0h2.241v7.2h-2.24v-7.2zM43.93 10.7h2.24V23h-2.24V10.7zm12.886.3h2.24v12h-2.24V11zm12.325 0h2.241v12h-2.24V11zM50.092 8h2.242v18h-2.242V8zm24.376 2.625H76.7v12.75h-2.232v-12.75zm25.113 0h2.232v12.75h-2.232v-12.75zM80.607 5.844h2.232v21.781h-2.232V5.844zm12.835.531h2.233v21.25h-2.233V6.375zm12.278 0h2.232v21.25h-2.232V6.375zM86.746 1.062h2.232v31.875h-2.232V1.064zM111.3 12.6h2.241v8.8H111.3v-8.8zm25.212 0h2.241v8.8h-2.241v-8.8zm-19.049-3.3h2.241v15.033h-2.241V9.3zm12.886.367h2.241v14.666h-2.241V9.667zm12.326 0h2.241v14.666h-2.241V9.667zM123.626 6h2.241v22h-2.241V6zm24.244 4.625h2.233v12.75h-2.233v-12.75zm25.113 0h2.233v12.75h-2.233v-12.75zm-18.974-4.781h2.232v21.781h-2.232V5.844zm12.836.531h2.232v21.25h-2.232V6.375zm12.277 0h2.232v21.25h-2.232V6.375zm-18.974-5.313h2.232v31.875h-2.232V1.064zM184.834 13.4h2.241v7.2h-2.241v-7.2zm25.212 0h2.241v7.2h-2.241v-7.2zm-19.049-2.7h2.241V23h-2.241V10.7zm12.886.3h2.241v12h-2.241V11zm12.325 0h2.242v12h-2.242V11zM197.16 8h2.241v18h-2.241V8zm24.441 6.6h2.241v4.8h-2.241v-4.8zm25.211 0h2.242v4.8h-2.242v-4.8zm-19.048-1.8h2.241V21h-2.241v-8.2zm12.886.2h2.241v8h-2.241v-8zm12.325 0h2.241v8h-2.241v-8zm-19.048-2h2.241v12h-2.241V11zm24.441-.8h2.241v13.6h-2.241V10.2zm25.211 0h2.241v13.6h-2.241V10.2zm-19.048-5.1h2.241v23.233h-2.241V5.1zm12.886.567h2.241v22.666h-2.241V5.667zm12.325 0h2.241v22.666h-2.241V5.667zM270.693 0h2.241v34h-2.241V0zm24.442 14.6h2.171v4.8h-2.171v-4.8zm24.423 0h2.171v4.8h-2.171v-4.8zm-18.453-1.8h2.171V21h-2.171v-8.2zm12.483.2h2.171v8h-2.171v-8zm11.941 0h2.17v8h-2.17v-8zm-18.454-2h2.171v12h-2.171V11zm24.826-1.6h2.171v15.2h-2.171V9.4zm24.424 0h2.171v15.2h-2.171V9.4zm-18.453-5.7h2.171v25.967h-2.171V3.7zm12.483.633h2.171v25.334h-2.171V4.333zm11.94 0h2.171v25.334h-2.171V4.333zM343.842-2h2.171v38h-2.171V-2zm23.776 17.4h2.241v3.2h-2.241v-3.2zm25.211 0h2.241v3.2h-2.241v-3.2zm-19.048-1.2h2.241v5.467h-2.241V14.2zm12.885.133h2.242v5.334h-2.242v-5.334zm12.326 0h2.241v5.334h-2.241v-5.334zM379.943 13h2.241v8h-2.241v-8zm24.442.4h2.241v7.2h-2.241v-7.2zm25.211 0h2.241v7.2h-2.241v-7.2zm-19.049-2.7h2.241V23h-2.241V10.7zm12.886.3h2.241v12h-2.241V11zm12.326 0H438v12h-2.241V11zM416.71 8h2.241v18h-2.241V8z"/></g><defs><clipPath id="clip0_125_364"><path fill="#fff" d="M0 0h438v34H0z"/></clipPath></defs></svg>