<svg width="21" height="22" viewBox="0 0 21 22" fill="none" xmlns="http://www.w3.org/2000/svg"><path d="M9.329 10.89v5.61c0 .291.117.571.325.778a1.117 1.117 0 001.572 0c.208-.207.325-.486.325-.778v-5.61a5.562 5.562 0 003.364-2.13 5.46 5.46 0 00-.75-7.34A5.587 5.587 0 0010.44 0a5.587 5.587 0 00-3.726 1.42 5.46 5.46 0 00-.749 7.34 5.561 5.561 0 003.364 2.13zm1.11-8.691c.66 0 1.305.194 1.853.556.548.363.975.878 1.228 1.481a3.27 3.27 0 01-.723 3.597 3.364 3.364 0 01-3.633.715 3.326 3.326 0 01-1.496-1.215 3.277 3.277 0 01.415-4.167 3.35 3.35 0 012.357-.967zm4.679 11.463a1.146 1.146 0 00-1.17.465 1.119 1.119 0 00.703 1.735c2.522.495 3.567 1.386 3.567 1.738 0 .638-2.723 2.2-7.778 2.2-5.056 0-7.778-1.562-7.778-2.2 0-.352 1.045-1.243 3.567-1.782a1.141 1.141 0 00.717-.486 1.118 1.118 0 00-.74-1.72 1.146 1.146 0 00-.444.006C2.384 14.388.44 15.828.44 17.6c0 2.893 5.033 4.4 10 4.4s10-1.507 10-4.4c0-1.771-1.945-3.212-5.322-3.938z" fill="#395700"/></svg>